<?xml version="1.0" encoding="UTF-8" standalone="no"?>
<!DOCTYPE svg PUBLIC "-//W3C//DTD SVG 1.0//EN" "http://www.w3.org/TR/2001/REC-SVG-20010904/DTD/svg10.dtd">
<!-- Создано Microsoft Visio 11.0, Экспорт SVG, версия 1.0 newlogo.svg logo -->
<svg xmlns="http://www.w3.org/2000/svg" xmlns:xlink="http://www.w3.org/1999/xlink" xmlns:ev="http://www.w3.org/2001/xml-events"
		xmlns:v="http://schemas.microsoft.com/visio/2003/SVGExtensions/" width="7.54754in" height="3.76579in"
		viewBox="0 0 543.423 271.137" xml:space="preserve" color-interpolation-filters="sRGB" class="st3">
	<v:documentProperties v:langID="1033" v:metric="true" v:viewMarkup="false"/>

	<style type="text/css">
	<![CDATA[
		.st1 {fill:#012396;stroke:none;stroke-linecap:butt;stroke-width:0.00225806}
		.st2 {stroke:none;stroke-linecap:butt;stroke-width:0.00225806}
		.st3 {fill:none;fill-rule:evenodd;font-size:12px;overflow:visible;stroke-linecap:square;stroke-miterlimit:3}
	]]>
	</style>

	<g v:mID="0" v:index="1" v:groupContext="foregroundPage">
		<title>logo</title>
		<v:pageProperties v:drawingScale="1" v:pageScale="1" v:drawingUnits="19" v:shadowOffsetX="9" v:shadowOffsetY="-9"/>
		<g id="shape1-1" v:mID="1" v:groupContext="shape" transform="translate(44.4103,-18.0023)">
			<title>Лист.1</title>
			<path d="M117.57 36 C150.03 36 179.42 49.16 200.7 70.44 C210.04 79.78 217.81 90.69 223.6 102.73 L205.36 102.73 C200.92
						 95.08 195.51 88.06 189.3 81.84 C170.94 63.49 145.58 52.13 117.57 52.13 C89.55 52.13 64.19 63.48 45.84 81.84
						 C27.48 100.2 16.12 125.56 16.12 153.57 C16.12 181.58 27.48 206.94 45.84 225.3 C64.19 243.66 89.55 255.01
						 117.57 255.01 C145.58 255.01 170.94 243.66 189.3 225.3 C205.05 209.54 215.65 188.63 218.33 165.3 L234.55
						 165.3 C231.8 193.08 219.38 218.02 200.7 236.7 C179.42 257.98 150.03 271.14 117.57 271.14 C85.1 271.14 55.71
						 257.98 34.44 236.7 C13.16 215.43 0 186.03 0 153.57 C-0 121.11 13.16 91.72 34.44 70.44 C55.71 49.16 85.1
						 36 117.57 36 Z" class="st1"/>
		</g>
		<g id="shape2-3" v:mID="2" v:groupContext="shape" transform="translate(200.384,-135.015)">
			<title>Лист.2</title>
			<path d="M0 237.97 L6.6 237.97 L6.6 251.85 C8.06 251.69 9.05 251.32 9.57 250.71 C10.09 250.1 10.89 248.41 11.97 245.63
						 C13.32 242.11 14.7 239.91 16.07 239.05 C17.44 238.19 19.63 237.76 22.66 237.76 C22.81 237.76 23.13 237.75
						 23.62 237.74 L23.62 242.61 L22.68 242.58 C21.33 242.58 20.35 242.75 19.73 243.08 C19.11 243.42 18.6 243.93
						 18.22 244.61 C17.83 245.29 17.26 246.7 16.51 248.82 C16.11 249.95 15.68 250.89 15.21 251.65 C14.74 252.41
						 13.92 253.12 12.73 253.79 C14.2 254.19 15.4 255.04 16.36 256.3 C17.31 257.56 18.36 259.33 19.5 261.63 L23.94
						 270.55 L16.2 270.55 L12.3 262.16 C12.23 262.04 12.11 261.81 11.92 261.47 C11.84 261.35 11.57 260.84 11.1
						 259.93 C10.26 258.33 9.58 257.33 9.05 256.92 C8.51 256.52 7.7 256.32 6.6 256.3 L6.6 270.55 L0 270.55 L0
						 237.97 ZM27.68 270.55 L27.68 237.97 L38.23 237.97 C42.23 237.97 44.83 238.13 46.04 238.45 C47.91 238.94
						 49.47 240 50.73 241.64 C51.99 243.28 52.62 245.4 52.62 247.99 C52.62 249.99 52.26 251.67 51.54 253.04 C50.81
						 254.4 49.89 255.47 48.77 256.25 C47.66 257.03 46.52 257.54 45.37 257.79 C43.8 258.1 41.53 258.26 38.56 258.26
						 L34.28 258.26 L34.28 270.55 L27.68 270.55 ZM34.28 243.47 L34.28 252.75 L37.87 252.75 C40.46 252.75 42.18
						 252.58 43.05 252.24 C43.92 251.9 44.6 251.37 45.1 250.63 C45.59 249.9 45.84 249.06 45.84 248.09 C45.84 246.9
						 45.49 245.92 44.8 245.15 C44.1 244.37 43.23 243.89 42.16 243.69 C41.38 243.55 39.81 243.47 37.45 243.47
						 L34.28 243.47 L34.28 243.47 ZM58.22 237.96 L64.82 237.96 L64.82 250.98 L73.61 250.98 C75.91 250.98 77.9
						 251.3 79.56 251.93 C81.22 252.56 82.61 253.68 83.72 255.3 C84.83 256.93 85.38 258.79 85.38 260.9 C85.38
						 263.11 84.81 265 83.65 266.6 C82.49 268.2 81.21 269.25 79.79 269.77 C78.38 270.29 76.31 270.55 73.59 270.55
						 L58.22 270.55 L58.22 237.97 L58.22 237.96 ZM64.82 265.04 L71.23 265.04 C73.27 265.04 74.7 264.94 75.51 264.74
						 C76.31 264.55 77.03 264.09 77.66 263.39 C78.29 262.68 78.61 261.82 78.61 260.81 C78.61 259.37 78.09 258.28
						 77.07 257.56 C76.03 256.84 74.18 256.48 71.5 256.48 L64.82 256.48 L64.82 265.04 L64.82 265.04 ZM89.16 237.96
						 L95.76 237.96 L95.76 270.55 L89.16 270.55 L89.16 237.96 ZM102.5 270.55 L102.5 237.96 L112.38 237.96 L118.22
						 260.19 L123.99 237.96 L133.89 237.96 L133.89 270.55 L127.8 270.55 L127.77 244.9 L121.35 270.55 L115.01 270.55
						 L108.62 244.9 L108.59 270.55 L102.5 270.55 ZM150.41 251.52 L160.61 251.52 C160.34 249.1 159.53 247.08 158.18
						 245.47 C156.83 243.86 154.99 243.06 152.68 243.06 C150.92 243.06 149.45 243.55 148.25 244.53 C147.05 245.51
						 146.21 246.81 145.73 248.43 L139.22 246.93 C139.89 244.04 141.35 241.73 143.63 239.98 C145.89 238.24 148.84
						 237.37 152.48 237.37 C157.22 237.37 160.92 238.95 163.58 242.1 C166.24 245.26 167.57 249.37 167.57 254.44
						 C167.57 257.88 166.96 260.84 165.72 263.32 C164.48 265.8 162.78 267.72 160.62 269.09 C158.47 270.45 155.87
						 271.14 152.82 271.14 C145.41 271.14 140.84 267.63 139.13 260.63 L145.73 258.58 C146.07 260.93 146.9 262.66
						 148.24 263.8 C149.58 264.92 151.17 265.49 153.03 265.49 C154.96 265.49 156.6 264.82 157.96 263.48 C159.33
						 262.13 160.21 259.98 160.61 257.03 L150.41 257.03 L150.41 251.53 L150.41 251.52 ZM172.87 270.55 L172.87
						 237.96 L179.47 237.96 L179.47 250.8 L192.3 250.8 L192.3 237.96 L198.9 237.96 L198.9 270.55 L192.3 270.55
						 L192.3 256.3 L179.47 256.3 L179.47 270.55 L172.87 270.55 ZM205.73 270.55 L205.73 237.96 L229.85 237.96 L229.85
						 243.47 L212.33 243.47 L212.33 250.71 L228.62 250.71 L228.62 256.21 L212.33 256.21 L212.33 265.04 L230.49
						 265.04 L230.49 270.55 L205.73 270.55 L205.73 270.55 ZM236.09 270.55 L236.09 237.96 L246.64 237.96 C250.63
						 237.96 253.24 238.12 254.45 238.45 C256.31 238.94 257.88 240 259.14 241.64 C260.4 243.28 261.02 245.4 261.02
						 247.99 C261.02 249.99 260.66 251.67 259.94 253.03 C259.21 254.4 258.29 255.47 257.18 256.25 C256.06 257.02
						 254.92 257.54 253.77 257.79 C252.2 258.1 249.93 258.26 246.96 258.26 L242.69 258.26 L242.69 270.55 L236.09
						 270.55 ZM242.69 243.47 L242.69 252.75 L246.27 252.75 C248.86 252.75 250.58 252.58 251.45 252.24 C252.33
						 251.9 253.01 251.37 253.5 250.63 C253.99 249.9 254.24 249.06 254.24 248.09 C254.24 246.9 253.9 245.92 253.21
						 245.15 C252.51 244.37 251.64 243.89 250.57 243.69 C249.78 243.55 248.22 243.47 245.85 243.47 L242.69 243.47
						 L242.69 243.47 ZM266.76 237.96 L288.83 237.96 L288.83 243.47 L273.36 243.47 L273.36 270.55 L266.76 270.55
						 L266.76 237.96 L266.76 237.96 ZM290.27 254.45 C290.27 251.13 290.77 248.34 291.76 246.08 C292.5 244.41 293.52
						 242.92 294.8 241.6 C296.08 240.28 297.48 239.3 299.01 238.66 C301.04 237.8 303.38 237.37 306.04 237.37 C310.85
						 237.37 314.68 238.86 317.57 241.85 C320.46 244.83 321.9 248.98 321.9 254.3 C321.9 259.57 320.46 263.7 317.61
						 266.67 C314.75 269.65 310.92 271.13 306.13 271.13 C301.28 271.13 297.42 269.66 294.56 266.69 C291.71 263.73
						 290.27 259.65 290.27 254.45 L290.27 254.45 ZM297.05 254.23 C297.05 257.92 297.91 260.72 299.61 262.64 C301.32
						 264.54 303.49 265.49 306.11 265.49 C308.74 265.49 310.9 264.55 312.59 262.66 C314.27 260.76 315.11 257.92
						 315.11 254.14 C315.11 250.4 314.29 247.61 312.65 245.77 C311.01 243.93 308.83 243.01 306.11 243.01 C303.4
						 243.01 301.2 243.95 299.54 245.8 C297.88 247.67 297.05 250.48 297.05 254.23 L297.05 254.23 Z" class="st1"/>
		</g>
		<g id="shape3-5" v:mID="3" v:groupContext="shape" transform="translate(99.3535,417.871) rotate(180)">
			<title>Лист.3</title>
			<path d="M0 271.14 L81.35 271.14" class="st2"/>
		</g>
		<g id="shape4-8" v:mID="4" v:groupContext="shape" transform="translate(18.0023,-120.372)">
			<title>Лист.4</title>
			<rect x="0" y="263.073" width="81.3513" height="8.06355" class="st1"/>
		</g>
		<g id="shape5-10" v:mID="5" v:groupContext="shape" transform="translate(18.0023,-102.741)">
			<title>Лист.5</title>
			<path d="M492.59 271.14 L142.29 271.14 L142.29 263.08 L497.23 263.08 L492.59 271.14 ZM75.78 271.14 L0 271.14 L0 263.08
						 L75.78 263.08 L75.78 271.14 Z" class="st1"/>
		</g>
		<g id="shape6-12" v:mID="6" v:groupContext="shape" transform="translate(154.351,-85.6742)">
			<title>Лист.6</title>
			<path d="M346.39 271.14 L0 271.14 L0 263.07 L351.05 263.07 L346.39 271.14 Z" class="st1"/>
		</g>
		<g id="shape7-14" v:mID="7" v:groupContext="shape" transform="translate(18.0023,-31.6319)">
			<title>Лист.7</title>
			<path d="M0 209.03 L68.46 209.03 L90.6 95.68 L94.56 75.41 L98.51 95.69 L125.82 236.05 L142.09 177.25 L142.91 174.31 L145.96
						 174.31 L507.42 174.35 L502.78 182.38 L149.02 182.34 L129.01 254.66 L124.44 271.14 L121.18 254.35 L94.55
						 117.49 L75.73 213.83 L75.09 217.09 L71.77 217.09 L0 217.09 L0 209.03 Z" class="st1"/>
		</g>
		<g id="shape8-16" v:mID="8" v:groupContext="shape" transform="translate(88.1535,-172.881)">
			<title>Лист.8</title>
			<path d="M23.86 268.44 L6.24 268.44 C5.26 269.13 4.21 269.71 3.08 270.17 C2.11 270.57 1.08 270.9 0 271.14 L23.86 271.14
						 L23.86 268.44 L23.86 268.44 Z" class="st1"/>
		</g>
		<g id="shape9-18" v:mID="9" v:groupContext="shape" transform="translate(86.8664,-171.801)">
			<title>Лист.9</title>
			<path d="M25.69 266.28 L26.23 266.28 L44.02 266.28 L44.2 266.28 L44.34 266.39 C45.29 267.08 46.32 267.65 47.41 268.1
						 C48.51 268.56 49.7 268.9 50.94 269.14 L51.38 269.23 L51.38 269.67 L51.38 270.6 L51.38 271.14 L50.84 271.14
						 L26.23 271.14 L25.69 271.14 L25.69 271.14 L25.15 271.14 L0.54 271.14 L0 271.14 L0 270.6 L0 269.67 L0 269.23
						 L0.44 269.14 C1.68 268.9 2.86 268.56 3.97 268.1 C5.06 267.65 6.09 267.08 7.04 266.39 L7.18 266.28 L7.35
						 266.28 L25.15 266.28 L25.69 266.28 L25.69 266.28 Z" class="st1"/>
		</g>
		<g id="shape10-20" v:mID="10" v:groupContext="shape" transform="translate(75.0455,-147.651)">
			<title>Лист.10</title>
			<path d="M37.51 266.29 L38.05 266.29 L64.47 266.29 L64.59 266.29 L64.7 266.34 C66.12 267.05 67.65 267.62 69.29 268.08
						 C70.94 268.55 72.7 268.9 74.55 269.14 L75.02 269.2 L75.02 269.67 L75.02 270.6 L75.02 271.14 L74.48 271.14
						 L38.05 271.14 L37.51 271.14 L37.51 271.14 L36.98 271.14 L0.54 271.14 L0 271.14 L0 270.6 L0 269.67 L0 269.2
						 L0.47 269.14 C2.32 268.9 4.08 268.55 5.73 268.08 C7.37 267.62 8.9 267.05 10.32 266.34 L10.43 266.29 L10.56
						 266.29 L36.98 266.29 L37.51 266.29 L37.52 266.29 L37.51 266.29 Z" class="st1"/>
		</g>
		<g id="shape11-22" v:mID="11" v:groupContext="shape" transform="translate(90.6013,-160.689)">
			<title>Лист.11</title>
			<path d="M0.94 259.01 L12.14 270.19 L11.2 271.14 L0 259.96 L0.94 259.01 Z" class="st1"/>
		</g>
		<g id="shape12-24" v:mID="12" v:groupContext="shape" transform="translate(122.365,-160.689)">
			<title>Лист.12</title>
			<path d="M12.14 259.96 L0.95 271.14 L0 270.19 L11.2 259.01 L12.14 259.96 Z" class="st1"/>
		</g>
		<g id="shape13-26" v:mID="13" v:groupContext="shape" transform="translate(81.7203,-133.127)">
			<title>Лист.13</title>
			<path d="M0.93 255.59 L16.04 270.17 L15.11 271.14 L0 256.56 L0.93 255.59 Z" class="st1"/>
		</g>
		<g id="shape14-28" v:mID="14" v:groupContext="shape" transform="translate(127.351,-133.127)">
			<title>Лист.14</title>
			<path d="M16.04 256.56 L0.93 271.14 L0 270.17 L15.11 255.59 L16.04 256.56 Z" class="st1"/>
		</g>
	</g>
</svg>
