<svg width="161" height="37" viewBox="0 0 161 37" fill="none" xmlns="http://www.w3.org/2000/svg">
<path d="M44.6073 22.6504V4.99998L30.2609 19.4245L36.2222 23.59L38.7899 25.3716C40.6045 26.6417 42.424 27.217 43.6532 25.5866C43.9311 25.1925 44.1539 24.7535 44.3145 24.3335L44.3333 24.2837C44.5068 23.8129 44.6043 23.15 44.6073 22.6504Z" fill="#FF4F12"/>
<path d="M38.7899 25.3716L9.6211 4.99998L9.6073 29.3371C9.60829 35.2136 11.967 37.1644 17.7026 35.342L40.5542 28.0859C42.2989 27.5415 43.7764 25.9708 44.351 24.236C43.1968 27.43 40.9899 26.9114 38.7899 25.3716Z" fill="#7700FF"/>
<path fill-rule="evenodd" clip-rule="evenodd" d="M92.9402 20.608C92.9402 16.4079 99.1752 16.4079 99.1752 20.608C99.1752 24.808 92.9402 24.809 92.9402 20.608ZM96.9486 26.6271C95.7896 26.6271 93.9222 26.1523 93.1929 24.773V31H90.0481V14.8427H93.1929V16.4429C93.5352 15.8652 94.1211 15.3744 94.7012 15.0916C95.3986 14.7517 96.1985 14.5888 96.9486 14.5888C99.4428 14.5888 101.461 16.4359 102.117 18.8848C102.45 19.9603 102.45 21.2546 102.117 22.3301C101.461 24.78 99.4428 26.6271 96.9486 26.6271Z" fill="#101828"/>
<path fill-rule="evenodd" clip-rule="evenodd" d="M106.923 20.608C106.923 16.4079 113.158 16.4079 113.158 20.608C113.157 24.808 106.923 24.808 106.923 20.608ZM109.15 26.6271C110.309 26.6271 112.176 26.1523 112.905 24.773V26.3732H116.05V14.8427H112.905V16.4429C112.563 15.8652 111.977 15.3744 111.397 15.0916C110.7 14.7517 109.9 14.5888 109.15 14.5888C106.098 14.5888 103.756 17.3565 103.756 20.608C103.755 23.8604 106.097 26.6271 109.15 26.6271Z" fill="#101828"/>
<path fill-rule="evenodd" clip-rule="evenodd" d="M151.481 20.608C151.481 16.4079 157.716 16.4079 157.716 20.608C157.715 24.808 151.481 24.808 151.481 20.608ZM153.706 26.6271C154.866 26.6271 156.733 26.1523 157.462 24.773V26.3732H160.607V14.8427H157.462V16.4429C157.12 15.8652 156.534 15.3744 155.954 15.0916C155.257 14.7517 154.457 14.5888 153.706 14.5888C150.653 14.5888 148.312 17.3565 148.312 20.608C148.312 23.8604 150.654 26.6271 153.706 26.6271Z" fill="#101828"/>
<path fill-rule="evenodd" clip-rule="evenodd" d="M54.6073 9.99998V26.3732H57.9352V15.7193L63.3901 23.5196L69.052 15.7193V26.3732H72.3799V9.99998H69.1426L63.3901 18.2161L57.8447 9.99998H54.6073Z" fill="#101828"/>
<path fill-rule="evenodd" clip-rule="evenodd" d="M138.059 17.6104H142.24V23.6065H136.924C137.835 23.2697 138.059 21.8334 138.059 20.3811V17.6104ZM133.009 23.6065V29.2099H135.832V26.3732H144.421V29.2099H147.245V23.6065H145.385V14.8427H134.914V20.6309C134.914 22.8679 134.249 23.6055 133.307 23.6055L133.009 23.6065Z" fill="#101828"/>
<path fill-rule="evenodd" clip-rule="evenodd" d="M118.781 26.3732H121.926V21.9453H127.405V26.3732H130.55V14.8427H127.405V19.2016H121.926V14.8427H118.781V26.3732Z" fill="#101828"/>
<path fill-rule="evenodd" clip-rule="evenodd" d="M78.1314 26.3732L84.0231 19.5704V26.3732H87.145V14.8427H84.3454L78.4527 21.6465V14.8427H75.3079V26.3732H78.1314Z" fill="#101828"/>
<path d="M6.58132 13.7152C5.36461 14.3844 5.482 15.6809 5.70652 16.2703L6.54464 19L4.6073 18C-2.36235 12.9712 1.64824 7.80083 1.64824 7.80083C3.14804 0.301837 10.5588 -0.668621 14.5289 1.53696C16.0302 2.37101 17.4014 3.44838 18.4989 4.5395C19.7467 5.7801 20.6406 7.03849 20.9692 7.97727L6.7652 13.6236C6.70077 13.6526 6.63952 13.6831 6.58132 13.7152Z" fill="#FF4200"/>
<path d="M6.7652 13.6236C5.35363 14.2588 5.47126 15.6527 5.70652 16.2703L6.54464 19L4.6073 18C-2.36235 12.9712 1.64824 7.80083 1.64824 7.80083M6.7652 13.6236L20.9692 7.97727C20.6406 7.03849 19.7467 5.7801 18.4989 4.5395M6.7652 13.6236C6.29468 12.6531 5.59183 10.1652 6.54464 7.97727M1.64824 7.80083C3.14804 0.301837 10.5588 -0.668621 14.5289 1.53696C16.0302 2.37101 17.4014 3.44838 18.4989 4.5395M1.64824 7.80083C1.53061 8.50662 1.64824 9.74175 2.08936 11.0651M6.7652 13.8L4.47139 12.7413M18.4989 4.5395C17.3226 3.53866 14.0877 1.71341 10.5588 2.4192" stroke="black" stroke-linecap="round" stroke-linejoin="round"/>
<rect x="-0.27877" y="0.649836" width="18.7883" height="7.98057" rx="1.97026" transform="matrix(-0.928606 0.371066 0.371066 0.928606 21.9046 6.96763)" fill="white" stroke="black"/>
<circle cx="3" cy="3" r="2.5" transform="matrix(-1 0 0 1 8.6073 15.5)" fill="white" stroke="black"/>
</svg>